<svg xmlns="http://www.w3.org/2000/svg" xmlns:xlink="http://www.w3.org/1999/xlink" width="500" zoomAndPan="magnify" viewBox="0 0 375 374.999991" height="500" preserveAspectRatio="xMidYMid meet" version="1.0"><defs><g/><clipPath id="c06c9ea282"><path d="M 92.113281 90.816406 L 279.613281 90.816406 L 279.613281 278 L 92.113281 278 Z M 92.113281 90.816406 " clip-rule="nonzero"/></clipPath></defs><g clip-path="url(#c06c9ea282)"><path fill="#122620" d="M 185.699219 277.988281 C 133.996094 277.988281 92.113281 235.816406 92.113281 184.402344 C 92.113281 132.988281 133.996094 90.816406 185.699219 90.816406 C 237.402344 90.816406 279.285156 132.699219 279.285156 184.402344 C 279.285156 236.105469 237.113281 277.988281 185.699219 277.988281 Z M 185.699219 96.59375 C 137.175781 96.59375 97.890625 135.875 97.890625 184.402344 C 97.890625 232.929688 137.175781 272.210938 185.699219 272.210938 C 234.226562 272.210938 273.507812 232.929688 273.507812 184.402344 C 273.507812 135.875 233.9375 96.59375 185.699219 96.59375 Z M 185.699219 96.59375 " fill-opacity="1" fill-rule="nonzero"/></g><path stroke-linecap="butt" transform="matrix(0.75, 0, 0, 0.75, 61.687822, 99.380266)" fill="none" stroke-linejoin="miter" d="M 80.879784 136.388821 L 49.405824 106.670069 L 95.140202 77.987775 C 97.437077 76.492983 99.009994 75.383608 99.858952 74.670067 C 100.702702 73.951316 101.129786 73.59715 101.129786 73.59715 C 101.129786 73.59715 101.390202 73.758608 101.911036 74.081525 C 102.452702 74.388817 103.036036 75.112775 103.666244 76.263817 C 104.384994 77.696108 104.739161 79.117983 104.739161 80.529442 C 104.739161 82.133609 104.228744 83.763817 103.213119 85.409651 C 102.192286 87.039859 100.390202 88.571109 97.806869 90.003401 L 68.056867 106.800277 L 91.265202 129.321112 C 93.129785 131.190904 94.619368 132.352362 95.723535 132.805487 C 96.83291 133.237779 97.384994 133.456529 97.384994 133.456529 C 97.384994 133.456529 97.317285 133.748195 97.187077 134.336737 C 97.056869 134.92007 96.546452 135.701321 95.661035 136.680487 C 94.77041 137.654446 93.749577 138.461737 92.598535 139.086737 C 91.447493 139.696112 90.155827 139.998196 88.723535 139.998196 C 87.577701 139.998196 86.348535 139.737779 85.046451 139.216946 C 83.765201 138.675279 82.379784 137.732571 80.879784 136.388821 Z M 111.265203 110.670069 L 115.530828 85.998192 C 116.249578 81.742984 116.442287 78.769025 116.11937 77.076317 C 115.812078 75.383608 115.661037 74.539858 115.661037 74.539858 C 115.661037 74.539858 116.192287 74.341942 117.254787 73.951316 C 118.317287 73.539858 120.098537 73.336733 122.593329 73.336733 C 127.759996 73.336733 130.895413 74.352358 131.999579 76.394025 C 133.108954 78.435692 133.259996 81.821109 132.457913 86.550276 L 127.249579 116.659653 C 126.640204 120.675278 126.848537 123.63882 127.869371 125.54507 C 128.890204 127.456528 130.603746 128.409653 133.009996 128.409653 C 135.312079 128.409653 137.796455 127.367987 140.463121 125.284653 C 143.134997 123.180486 145.317288 120.352361 147.009997 116.789861 C 147.900622 116.789861 148.582914 117.060694 149.056872 117.602361 C 149.556872 118.123194 149.707914 119.013819 149.515205 120.274236 C 149.166247 122.055486 148.34333 124.060695 147.041247 126.29507 C 145.759997 128.508612 144.056872 130.659654 141.931872 132.742987 C 139.801663 134.82632 137.364163 136.560696 134.603746 137.951321 C 131.848538 139.315904 128.864162 139.998196 125.655829 139.998196 C 121.030829 139.998196 117.27562 138.555487 114.390203 135.670071 C 111.504786 132.784654 110.062078 128.67007 110.062078 123.331528 C 110.062078 122.008611 110.15062 120.242986 110.322495 118.029444 C 110.49437 115.795069 110.812078 113.341944 111.265203 110.670069 Z M 120.187078 53.347148 C 120.187078 50.59194 121.11937 48.305481 122.983954 46.482565 C 124.853745 44.659648 127.030829 43.74819 129.530829 43.74819 C 132.108954 43.74819 134.129788 44.550273 135.582913 46.15444 C 137.056871 47.737773 137.796455 49.737773 137.796455 52.144023 C 137.796455 54.446107 136.926663 56.550274 135.192288 58.456524 C 133.457913 60.367982 131.124579 61.321107 128.192287 61.321107 C 125.806871 61.321107 123.874579 60.576316 122.40062 59.076316 C 120.921454 57.56069 120.187078 55.649232 120.187078 53.347148 Z M 169.12979 86.550276 L 168.739165 88.925276 C 174.509999 78.53465 181.661041 73.336733 190.192291 73.336733 C 196.421458 73.336733 201.171459 75.383608 204.447501 79.487775 C 207.749584 83.5659 209.395418 89.065901 209.395418 95.992985 C 209.395418 97.94611 209.312084 99.85236 209.135001 101.722152 C 208.963126 103.586735 208.692293 105.409652 208.322501 107.190902 C 210.905834 106.930485 213.218335 106.242985 215.254793 105.138819 C 217.29646 104.029443 219.020418 102.836735 220.431877 101.555485 C 221.864169 100.253402 222.957919 99.138818 223.718335 98.206526 C 224.478752 97.269026 224.85896 96.805485 224.85896 96.805485 C 226.723544 96.805485 227.525627 97.909651 227.265211 100.123193 C 227.004794 101.644027 225.942294 103.378402 224.07771 105.331527 C 222.213127 107.284652 219.780835 109.024235 216.786043 110.539861 C 213.812085 112.039861 210.504793 112.972152 206.858959 113.341944 C 205.166251 118.852361 202.744376 123.60757 199.598542 127.597153 C 196.452709 131.591945 192.895417 134.659654 188.921458 136.810696 C 184.973541 138.935696 180.817291 139.998196 176.452707 139.998196 C 173.265207 139.998196 170.358957 139.404446 167.728748 138.211737 C 165.103748 136.992987 162.858956 135.409654 160.994373 133.456529 L 153.931872 173.982573 C 153.213122 178.170073 153.004789 181.133615 153.312081 182.86799 C 153.634997 184.607574 153.801664 185.472157 153.801664 185.472157 C 153.801664 185.472157 153.265206 185.670074 152.202706 186.060699 C 151.140206 186.472157 149.358955 186.680491 146.864164 186.680491 C 141.702705 186.680491 138.567288 185.628407 137.457913 183.519032 C 136.353746 181.435699 136.197496 178.08674 137.004788 173.46174 L 152.202706 85.998192 C 152.921456 81.831525 153.114164 78.8784 152.791247 77.144025 C 152.483956 75.40965 152.332914 74.539858 152.332914 74.539858 C 152.332914 74.539858 152.864164 74.341942 153.931872 73.951316 C 154.994372 73.539858 156.770414 73.336733 159.265206 73.336733 C 164.41104 73.336733 167.53604 74.352358 168.640207 76.394025 C 169.770415 78.435692 169.931873 81.821109 169.12979 86.550276 Z M 185.405833 99.211735 C 185.405833 96.97736 185.983958 95.024235 187.129791 93.352359 C 188.280833 91.659651 189.921458 90.586734 192.046458 90.133609 C 191.265208 85.769026 189.093333 83.586734 185.536041 83.586734 C 181.718333 83.586734 177.582916 87.102359 173.134999 94.133609 C 171.270415 97.149235 169.468332 100.732568 167.728748 104.878402 C 165.994373 108.998194 164.509998 114.086736 163.270415 120.144028 L 162.327706 125.190903 C 163.218331 126.623195 164.452706 127.935695 166.03604 129.128403 C 167.645415 130.321112 169.780832 130.92007 172.452707 130.92007 C 176.09854 130.92007 179.556874 128.966945 182.832916 125.060695 C 186.134999 121.154445 188.629791 116.039861 190.3225 109.727361 C 187.046458 107.144027 185.405833 103.638818 185.405833 99.211735 Z M 249.254795 76.946108 L 280.733964 106.670069 L 234.999586 135.347154 C 232.676669 136.753404 231.093336 137.841946 230.244377 138.602362 C 229.421461 139.357571 229.010002 139.737779 229.010002 139.737779 C 229.010002 139.737779 228.739169 139.586737 228.197502 139.284654 C 227.655836 138.956529 227.077711 138.222154 226.473544 137.071112 C 225.754794 135.638821 225.395419 134.216945 225.395419 132.805487 C 225.395419 131.20132 225.926669 129.581528 226.994377 127.956528 C 228.056877 126.305487 229.832919 124.76382 232.327711 123.331528 L 262.051671 106.53986 L 238.874586 84.013817 C 237.004794 82.144025 235.510003 80.992984 234.379794 80.560692 C 233.275628 80.107567 232.718336 79.8784 232.718336 79.8784 C 232.718336 79.8784 232.786044 79.560692 232.916253 78.935692 C 233.046461 78.305483 233.556878 77.545067 234.447503 76.654442 C 235.442294 75.680483 236.494378 74.888817 237.603753 74.279442 C 238.70792 73.649233 239.968336 73.336733 241.379795 73.336733 C 242.640212 73.336733 243.905837 73.607566 245.187087 74.149233 C 246.48917 74.670067 247.848545 75.602358 249.254795 76.946108 Z M 249.254795 76.946108 " stroke="#fffef9" stroke-width="9.999975" stroke-opacity="1" stroke-miterlimit="4"/><g fill="#122620" fill-opacity="1"><g transform="translate(96.738601, 204.380259)"><g><path d="M 25.59375 -2.703125 L 2 -25 L 36.296875 -46.5 C 38.035156 -47.632812 39.21875 -48.46875 39.84375 -49 C 40.476562 -49.53125 40.796875 -49.796875 40.796875 -49.796875 C 40.796875 -49.796875 40.992188 -49.675781 41.390625 -49.4375 C 41.796875 -49.207031 42.234375 -48.660156 42.703125 -47.796875 C 43.234375 -46.734375 43.5 -45.664062 43.5 -44.59375 C 43.5 -43.394531 43.113281 -42.175781 42.34375 -40.9375 C 41.582031 -39.707031 40.234375 -38.5625 38.296875 -37.5 L 16 -24.90625 L 33.40625 -8 C 34.800781 -6.601562 35.914062 -5.738281 36.75 -5.40625 C 37.582031 -5.070312 38 -4.90625 38 -4.90625 C 38 -4.90625 37.945312 -4.6875 37.84375 -4.25 C 37.75 -3.8125 37.367188 -3.226562 36.703125 -2.5 C 36.035156 -1.769531 35.265625 -1.171875 34.390625 -0.703125 C 33.523438 -0.234375 32.5625 0 31.5 0 C 30.632812 0 29.71875 -0.195312 28.75 -0.59375 C 27.78125 -1 26.726562 -1.703125 25.59375 -2.703125 Z M 25.59375 -2.703125 "/></g></g></g><g fill="#122620" fill-opacity="1"><g transform="translate(146.236687, 204.380259)"><g><path d="M -1.09375 -22 L 2.09375 -40.5 C 2.632812 -43.695312 2.785156 -45.925781 2.546875 -47.1875 C 2.316406 -48.457031 2.203125 -49.09375 2.203125 -49.09375 C 2.203125 -49.09375 2.597656 -49.242188 3.390625 -49.546875 C 4.191406 -49.847656 5.53125 -50 7.40625 -50 C 11.269531 -50 13.617188 -49.234375 14.453125 -47.703125 C 15.285156 -46.171875 15.398438 -43.632812 14.796875 -40.09375 L 10.90625 -17.5 C 10.4375 -14.5 10.582031 -12.28125 11.34375 -10.84375 C 12.113281 -9.414062 13.398438 -8.703125 15.203125 -8.703125 C 16.929688 -8.703125 18.796875 -9.484375 20.796875 -11.046875 C 22.796875 -12.617188 24.429688 -14.738281 25.703125 -17.40625 C 26.367188 -17.40625 26.882812 -17.203125 27.25 -16.796875 C 27.613281 -16.398438 27.726562 -15.734375 27.59375 -14.796875 C 27.332031 -13.460938 26.71875 -11.960938 25.75 -10.296875 C 24.78125 -8.628906 23.492188 -7.007812 21.890625 -5.4375 C 20.296875 -3.875 18.460938 -2.578125 16.390625 -1.546875 C 14.328125 -0.515625 12.097656 0 9.703125 0 C 6.234375 0 3.414062 -1.082031 1.25 -3.25 C -0.914062 -5.414062 -2 -8.5 -2 -12.5 C -2 -13.5 -1.929688 -14.832031 -1.796875 -16.5 C -1.660156 -18.164062 -1.425781 -20 -1.09375 -22 Z M 5.59375 -65 C 5.59375 -67.0625 6.289062 -68.773438 7.6875 -70.140625 C 9.09375 -71.515625 10.726562 -72.203125 12.59375 -72.203125 C 14.53125 -72.203125 16.046875 -71.597656 17.140625 -70.390625 C 18.242188 -69.191406 18.796875 -67.695312 18.796875 -65.90625 C 18.796875 -64.164062 18.144531 -62.578125 16.84375 -61.140625 C 15.550781 -59.710938 13.800781 -59 11.59375 -59 C 9.800781 -59 8.351562 -59.566406 7.25 -60.703125 C 6.144531 -61.835938 5.59375 -63.269531 5.59375 -65 Z M 5.59375 -65 "/></g></g></g><g fill="#122620" fill-opacity="1"><g transform="translate(172.93566, 204.380259)"><g><path d="M 15.59375 -40.09375 L 15.296875 -38.296875 C 19.628906 -46.097656 25 -50 31.40625 -50 C 36.070312 -50 39.632812 -48.460938 42.09375 -45.390625 C 44.5625 -42.328125 45.796875 -38.195312 45.796875 -33 C 45.796875 -31.53125 45.726562 -30.09375 45.59375 -28.6875 C 45.46875 -27.289062 45.269531 -25.925781 45 -24.59375 C 46.9375 -24.800781 48.671875 -25.320312 50.203125 -26.15625 C 51.734375 -26.988281 53.03125 -27.882812 54.09375 -28.84375 C 55.164062 -29.8125 55.984375 -30.644531 56.546875 -31.34375 C 57.117188 -32.050781 57.40625 -32.40625 57.40625 -32.40625 C 58.800781 -32.40625 59.398438 -31.570312 59.203125 -29.90625 C 59.003906 -28.769531 58.203125 -27.46875 56.796875 -26 C 55.398438 -24.53125 53.582031 -23.226562 51.34375 -22.09375 C 49.113281 -20.96875 46.632812 -20.269531 43.90625 -20 C 42.632812 -15.863281 40.816406 -12.296875 38.453125 -9.296875 C 36.085938 -6.296875 33.421875 -3.992188 30.453125 -2.390625 C 27.484375 -0.796875 24.363281 0 21.09375 0 C 18.695312 0 16.515625 -0.445312 14.546875 -1.34375 C 12.578125 -2.25 10.894531 -3.4375 9.5 -4.90625 L 4.203125 25.5 C 3.671875 28.632812 3.519531 30.847656 3.75 32.140625 C 3.976562 33.441406 4.09375 34.09375 4.09375 34.09375 C 4.09375 34.09375 3.691406 34.242188 2.890625 34.546875 C 2.097656 34.847656 0.769531 35 -1.09375 35 C -4.96875 35 -7.320312 34.210938 -8.15625 32.640625 C -8.988281 31.078125 -9.101562 28.5625 -8.5 25.09375 L 2.90625 -40.5 C 3.4375 -43.632812 3.582031 -45.847656 3.34375 -47.140625 C 3.113281 -48.441406 3 -49.09375 3 -49.09375 C 3 -49.09375 3.398438 -49.242188 4.203125 -49.546875 C 5.003906 -49.847656 6.335938 -50 8.203125 -50 C 12.066406 -50 14.414062 -49.234375 15.25 -47.703125 C 16.082031 -46.171875 16.195312 -43.632812 15.59375 -40.09375 Z M 27.796875 -30.59375 C 27.796875 -32.257812 28.226562 -33.726562 29.09375 -35 C 29.96875 -36.269531 31.203125 -37.070312 32.796875 -37.40625 C 32.203125 -40.664062 30.570312 -42.296875 27.90625 -42.296875 C 25.03125 -42.296875 21.925781 -39.664062 18.59375 -34.40625 C 17.195312 -32.132812 15.847656 -29.445312 14.546875 -26.34375 C 13.242188 -23.25 12.128906 -19.4375 11.203125 -14.90625 L 10.5 -11.09375 C 11.164062 -10.03125 12.097656 -9.046875 13.296875 -8.140625 C 14.492188 -7.242188 16.09375 -6.796875 18.09375 -6.796875 C 20.832031 -6.796875 23.429688 -8.257812 25.890625 -11.1875 C 28.359375 -14.125 30.226562 -17.960938 31.5 -22.703125 C 29.03125 -24.628906 27.796875 -27.257812 27.796875 -30.59375 Z M 27.796875 -30.59375 "/></g></g></g><g fill="#122620" fill-opacity="1"><g transform="translate(228.733512, 204.380259)"><g><path d="M 19.90625 -47.296875 L 43.5 -25 L 9.203125 -3.5 C 7.460938 -2.4375 6.273438 -1.617188 5.640625 -1.046875 C 5.015625 -0.484375 4.703125 -0.203125 4.703125 -0.203125 C 4.703125 -0.203125 4.5 -0.316406 4.09375 -0.546875 C 3.695312 -0.785156 3.265625 -1.335938 2.796875 -2.203125 C 2.265625 -3.265625 2 -4.332031 2 -5.40625 C 2 -6.601562 2.398438 -7.816406 3.203125 -9.046875 C 4.003906 -10.285156 5.335938 -11.4375 7.203125 -12.5 L 29.5 -25.09375 L 12.09375 -42 C 10.695312 -43.394531 9.582031 -44.257812 8.75 -44.59375 C 7.914062 -44.925781 7.5 -45.09375 7.5 -45.09375 C 7.5 -45.09375 7.546875 -45.328125 7.640625 -45.796875 C 7.742188 -46.265625 8.128906 -46.832031 8.796875 -47.5 C 9.535156 -48.226562 10.320312 -48.828125 11.15625 -49.296875 C 11.988281 -49.765625 12.9375 -50 14 -50 C 14.9375 -50 15.882812 -49.796875 16.84375 -49.390625 C 17.8125 -48.992188 18.832031 -48.296875 19.90625 -47.296875 Z M 19.90625 -47.296875 "/></g></g></g><path fill="#fffef9" d="M 278.734375 225.945312 C 277.734375 228.167969 276.660156 230.351562 275.503906 232.5 C 274.347656 234.644531 273.117188 236.746094 271.808594 238.804688 C 270.503906 240.859375 269.125 242.867188 267.675781 244.828125 C 266.222656 246.785156 264.703125 248.6875 263.117188 250.539062 C 261.53125 252.386719 259.878906 254.179688 258.164062 255.910156 C 256.449219 257.640625 254.675781 259.308594 252.839844 260.914062 C 251.003906 262.515625 249.113281 264.054688 247.171875 265.523438 C 245.226562 266.988281 243.230469 268.386719 241.183594 269.710938 C 239.140625 271.039062 237.050781 272.289062 234.914062 273.464844 C 232.78125 274.640625 230.605469 275.738281 228.394531 276.757812 C 226.179688 277.777344 223.933594 278.71875 221.652344 279.578125 C 219.371094 280.4375 217.0625 281.210938 214.726562 281.90625 C 212.390625 282.597656 210.03125 283.207031 207.652344 283.730469 C 205.273438 284.257812 202.878906 284.695312 200.464844 285.046875 C 198.054688 285.398438 195.632812 285.667969 193.203125 285.84375 C 190.773438 286.023438 188.339844 286.117188 185.902344 286.121094 C 183.464844 286.125 181.03125 286.042969 178.597656 285.875 C 176.167969 285.703125 173.746094 285.445312 171.332031 285.101562 C 168.921875 284.761719 166.523438 284.332031 164.140625 283.816406 C 161.757812 283.300781 159.398438 282.699219 157.058594 282.015625 C 154.722656 281.332031 152.410156 280.5625 150.125 279.714844 C 147.839844 278.863281 145.589844 277.933594 143.375 276.921875 C 141.15625 275.910156 138.976562 274.820312 136.839844 273.652344 C 134.699219 272.484375 132.605469 271.242188 130.554688 269.925781 C 128.503906 268.609375 126.503906 267.21875 124.554688 265.757812 C 122.601562 264.296875 120.707031 262.765625 118.867188 261.171875 C 117.027344 259.574219 115.246094 257.914062 113.523438 256.1875 C 111.800781 254.464844 110.144531 252.679688 108.546875 250.835938 C 106.953125 248.992188 105.429688 247.09375 103.972656 245.140625 C 102.511719 243.1875 101.125 241.1875 99.8125 239.132812 C 98.496094 237.082031 97.257812 234.984375 96.09375 232.84375 C 94.929688 230.703125 93.84375 228.523438 92.835938 226.304688 L 113.539062 216.902344 C 114.320312 218.625 115.164062 220.320312 116.070312 221.984375 C 116.976562 223.648438 117.9375 225.277344 118.960938 226.871094 C 119.980469 228.464844 121.058594 230.019531 122.191406 231.539062 C 123.324219 233.054688 124.507812 234.53125 125.75 235.964844 C 126.988281 237.398438 128.273438 238.78125 129.613281 240.125 C 130.953125 241.464844 132.335938 242.753906 133.765625 243.996094 C 135.195312 245.234375 136.667969 246.425781 138.183594 247.558594 C 139.703125 248.695312 141.253906 249.773438 142.847656 250.796875 C 144.441406 251.824219 146.070312 252.789062 147.730469 253.695312 C 149.394531 254.601562 151.085938 255.449219 152.808594 256.234375 C 154.53125 257.019531 156.28125 257.746094 158.058594 258.40625 C 159.832031 259.066406 161.628906 259.660156 163.445312 260.195312 C 165.261719 260.726562 167.097656 261.191406 168.949219 261.59375 C 170.800781 261.992188 172.664062 262.324219 174.535156 262.59375 C 176.410156 262.859375 178.292969 263.058594 180.183594 263.191406 C 182.074219 263.324219 183.964844 263.386719 185.859375 263.382812 C 187.75 263.378906 189.644531 263.308594 191.53125 263.167969 C 193.421875 263.03125 195.300781 262.824219 197.175781 262.550781 C 199.050781 262.277344 200.910156 261.933594 202.761719 261.527344 C 204.609375 261.121094 206.441406 260.644531 208.257812 260.109375 C 210.074219 259.570312 211.867188 258.964844 213.640625 258.296875 C 215.410156 257.628906 217.15625 256.902344 218.878906 256.109375 C 220.597656 255.316406 222.289062 254.460938 223.945312 253.546875 C 225.605469 252.636719 227.230469 251.664062 228.816406 250.632812 C 230.40625 249.601562 231.957031 248.515625 233.46875 247.375 C 234.980469 246.234375 236.449219 245.042969 237.875 243.792969 C 239.300781 242.546875 240.679688 241.253906 242.011719 239.90625 C 243.34375 238.5625 244.628906 237.171875 245.863281 235.734375 C 247.09375 234.296875 248.273438 232.816406 249.402344 231.292969 C 250.527344 229.773438 251.601562 228.210938 252.617188 226.613281 C 253.628906 225.015625 254.585938 223.382812 255.484375 221.714844 C 256.382812 220.046875 257.222656 218.351562 257.996094 216.621094 Z M 278.734375 225.945312 " fill-opacity="1" fill-rule="nonzero"/><g fill="#122620" fill-opacity="1"><g transform="translate(99.858139, 228.019526)"><g><path d="M 6.75 10.8125 L 5.734375 9.203125 L 11.65625 2.453125 L 2.96875 4.765625 L 1.953125 3.125 L 9.359375 -5.78125 L 10.40625 -4.09375 L 4.25 2.90625 L 13.203125 0.4375 L 14.1875 1.96875 L 8.03125 8.96875 L 17.015625 6.484375 L 18.015625 8.109375 Z M 6.75 10.8125 "/></g></g></g><g fill="#122620" fill-opacity="1"><g transform="translate(117.936606, 252.388334)"><g><path d="M 13.140625 -0.78125 L 8.671875 -4.78125 L 6.703125 -2.5625 L 10.703125 1.015625 L 9.59375 2.265625 L 5.59375 -1.3125 L 3.578125 0.9375 L 8.1875 5.0625 L 7.078125 6.3125 L 1.078125 0.953125 L 8.390625 -7.265625 L 14.25 -2.03125 Z M 13.140625 -0.78125 "/></g></g></g><g fill="#122620" fill-opacity="1"><g transform="translate(137.161473, 267.182804)"><g><path d="M 6.28125 -9.140625 L 10.546875 -6.96875 C 11.566406 -6.445312 12.253906 -5.820312 12.609375 -5.09375 C 12.972656 -4.363281 12.960938 -3.613281 12.578125 -2.84375 C 12.285156 -2.289062 11.890625 -1.898438 11.390625 -1.671875 C 10.890625 -1.441406 10.335938 -1.398438 9.734375 -1.546875 C 10.335938 -1.097656 10.710938 -0.5625 10.859375 0.0625 C 11.003906 0.695312 10.910156 1.34375 10.578125 2 C 10.148438 2.832031 9.5 3.328125 8.625 3.484375 C 7.75 3.640625 6.753906 3.4375 5.640625 2.875 L 1.28125 0.65625 Z M 7.171875 -6.828125 L 5.859375 -4.234375 L 8.375 -2.953125 C 8.894531 -2.691406 9.363281 -2.597656 9.78125 -2.671875 C 10.207031 -2.753906 10.523438 -3 10.734375 -3.40625 C 10.941406 -3.820312 10.953125 -4.210938 10.765625 -4.578125 C 10.578125 -4.953125 10.21875 -5.273438 9.6875 -5.546875 Z M 5.125 -2.78125 L 3.6875 0.03125 L 6.203125 1.3125 C 6.859375 1.644531 7.425781 1.773438 7.90625 1.703125 C 8.394531 1.640625 8.753906 1.382812 8.984375 0.9375 C 9.203125 0.507812 9.191406 0.078125 8.953125 -0.359375 C 8.722656 -0.796875 8.285156 -1.175781 7.640625 -1.5 Z M 5.125 -2.78125 "/></g></g></g><g fill="#122620" fill-opacity="1"><g transform="translate(160.258743, 276.90074)"><g><path d="M 8.484375 -9.46875 C 9.234375 -9.3125 9.9375 -9.007812 10.59375 -8.5625 C 11.257812 -8.113281 11.796875 -7.570312 12.203125 -6.9375 L 10.875 -5.859375 C 10.570312 -6.359375 10.179688 -6.785156 9.703125 -7.140625 C 9.222656 -7.503906 8.710938 -7.742188 8.171875 -7.859375 C 7.085938 -8.085938 6.097656 -7.914062 5.203125 -7.34375 C 4.316406 -6.769531 3.757812 -5.957031 3.53125 -4.90625 C 3.300781 -3.832031 3.472656 -2.851562 4.046875 -1.96875 C 4.628906 -1.082031 5.460938 -0.523438 6.546875 -0.296875 C 7.671875 -0.0546875 8.765625 -0.265625 9.828125 -0.921875 L 10.625 0.5 C 9.957031 0.9375 9.21875 1.234375 8.40625 1.390625 C 7.601562 1.546875 6.832031 1.546875 6.09375 1.390625 C 4.519531 1.046875 3.304688 0.234375 2.453125 -1.046875 C 1.597656 -2.328125 1.335938 -3.738281 1.671875 -5.28125 C 1.992188 -6.8125 2.8125 -7.976562 4.125 -8.78125 C 5.4375 -9.582031 6.890625 -9.8125 8.484375 -9.46875 Z M 8.484375 -9.46875 "/></g></g></g><g fill="#122620" fill-opacity="1"><g transform="translate(184.947184, 280.349879)"><g><path d="M 8.40625 -0.421875 L 6.21875 -3.65625 C 6.113281 -3.632812 5.953125 -3.617188 5.734375 -3.609375 L 3.125 -3.484375 L 3.296875 -0.171875 L 1.4375 -0.078125 L 0.890625 -11.0625 L 5.359375 -11.28125 C 6.753906 -11.351562 7.851562 -11.078125 8.65625 -10.453125 C 9.457031 -9.835938 9.890625 -8.929688 9.953125 -7.734375 C 9.992188 -6.867188 9.832031 -6.117188 9.46875 -5.484375 C 9.113281 -4.859375 8.578125 -4.390625 7.859375 -4.078125 L 10.5 -0.53125 Z M 3.046875 -5.15625 L 5.65625 -5.28125 C 7.425781 -5.375 8.273438 -6.148438 8.203125 -7.609375 C 8.128906 -9.035156 7.207031 -9.703125 5.4375 -9.609375 L 2.828125 -9.484375 Z M 3.046875 -5.15625 "/></g></g></g><g fill="#122620" fill-opacity="1"><g transform="translate(210.110873, 277.238988)"><g><path d="M 7.359375 -5.015625 L 2.09375 -3.296875 L 1.859375 -0.609375 L 0.015625 0 L 1.234375 -11.96875 L 3.03125 -12.546875 L 11 -3.59375 L 9.125 -2.96875 Z M 6.15625 -6.34375 L 2.6875 -10.359375 L 2.21875 -5.0625 Z M 6.15625 -6.34375 "/></g></g></g><g fill="#122620" fill-opacity="1"><g transform="translate(233.694938, 267.525413)"><g><path d="M 2.421875 -12.59375 L -2.234375 -9.625 L -0.53125 -6.953125 L 3.6875 -9.640625 L 4.578125 -8.25 L 0.359375 -5.5625 L 2.78125 -1.765625 L 1.21875 -0.765625 L -4.6875 -10.046875 L 1.53125 -14.03125 Z M 2.421875 -12.59375 "/></g></g></g><g fill="#122620" fill-opacity="1"><g transform="translate(252.054684, 253.866325)"><g><path d="M -0.53125 -12.90625 L -2.953125 -10.40625 L 3.78125 -3.953125 L 2.5 -2.609375 L -4.234375 -9.0625 L -6.640625 -6.546875 L -7.84375 -7.703125 L -1.734375 -14.0625 Z M -0.53125 -12.90625 "/></g></g></g><g fill="#122620" fill-opacity="1"><g transform="translate(266.730772, 236.19215)"><g><path d="M -7.078125 -9.921875 C -6.378906 -11.148438 -5.410156 -12.066406 -4.171875 -12.671875 L -3.140625 -11.203125 C -4.285156 -10.566406 -5.113281 -9.804688 -5.625 -8.921875 C -5.90625 -8.429688 -6.039062 -8 -6.03125 -7.625 C -6.019531 -7.25 -5.851562 -6.96875 -5.53125 -6.78125 C -5.207031 -6.59375 -4.859375 -6.5625 -4.484375 -6.6875 C -4.117188 -6.820312 -3.773438 -7.050781 -3.453125 -7.375 C -3.140625 -7.695312 -2.773438 -8.03125 -2.359375 -8.375 C -1.941406 -8.726562 -1.535156 -9.046875 -1.140625 -9.328125 C -0.742188 -9.617188 -0.285156 -9.78125 0.234375 -9.8125 C 0.753906 -9.84375 1.285156 -9.703125 1.828125 -9.390625 C 2.648438 -8.910156 3.117188 -8.191406 3.234375 -7.234375 C 3.347656 -6.285156 3.101562 -5.28125 2.5 -4.21875 C 2.070312 -3.488281 1.523438 -2.859375 0.859375 -2.328125 C 0.203125 -1.804688 -0.503906 -1.429688 -1.265625 -1.203125 L -2.25 -2.6875 C -1.53125 -2.914062 -0.882812 -3.25 -0.3125 -3.6875 C 0.257812 -4.125 0.695312 -4.601562 1 -5.125 C 1.320312 -5.6875 1.46875 -6.175781 1.4375 -6.59375 C 1.414062 -7.019531 1.226562 -7.335938 0.875 -7.546875 C 0.550781 -7.734375 0.207031 -7.765625 -0.15625 -7.640625 C -0.53125 -7.523438 -0.878906 -7.304688 -1.203125 -6.984375 C -1.535156 -6.671875 -1.898438 -6.332031 -2.296875 -5.96875 C -2.703125 -5.601562 -3.097656 -5.28125 -3.484375 -5 C -3.867188 -4.71875 -4.320312 -4.550781 -4.84375 -4.5 C -5.363281 -4.457031 -5.894531 -4.59375 -6.4375 -4.90625 C -7.238281 -5.363281 -7.695312 -6.050781 -7.8125 -6.96875 C -7.925781 -7.882812 -7.679688 -8.867188 -7.078125 -9.921875 Z M -7.078125 -9.921875 "/></g></g></g></svg>